<?xml version="1.0" encoding="utf-8"?>
<!-- Generator: Adobe Illustrator 18.0.0, SVG Export Plug-In . SVG Version: 6.00 Build 0)  -->
<!DOCTYPE svg PUBLIC "-//W3C//DTD SVG 1.1//EN" "http://www.w3.org/Graphics/SVG/1.1/DTD/svg11.dtd">
<svg version="1.1" id="Layer_1" xmlns="http://www.w3.org/2000/svg" xmlns:xlink="http://www.w3.org/1999/xlink" x="0px" y="0px"
	 viewBox="0 0 300 300" enable-background="new 0 0 300 300" xml:space="preserve">
<g>
	<g>
		<polygon fill="#469543" points="241.2,43 6.5,43 6.5,285.8 92.5,285.8 92.5,277.7 39.2,277.7 39.2,55 241.2,55 		"/>
		<polygon fill="#F6851F" points="58.8,256.1 293.5,256.1 293.5,13.3 207.5,13.3 207.5,21.5 260.8,21.5 260.8,244.1 58.8,244.1 		
			"/>
	</g>
	<g>
		<path d="M74.2,215V107.4h12v10.1c2.8-4,6-6.9,9.6-8.9c3.6-2,7.9-3,13-3c6.6,0,12.5,1.7,17.6,5.1c5.1,3.4,8.9,8.2,11.5,14.5
			c2.6,6.2,3.9,13,3.9,20.5c0,8-1.4,15.1-4.3,21.5c-2.9,6.4-7,11.3-12.5,14.6c-5.4,3.4-11.2,5.1-17.2,5.1c-4.4,0-8.3-0.9-11.8-2.8
			c-3.5-1.9-6.4-4.2-8.6-7V215H74.2z M86.2,146.7c0,10,2,17.4,6.1,22.2c4.1,4.8,9,7.2,14.7,7.2c5.9,0,10.9-2.5,15.1-7.4
			c4.2-5,6.3-12.6,6.3-23c0-9.9-2-17.3-6.1-22.3c-4.1-4.9-8.9-7.4-14.6-7.4c-5.6,0-10.6,2.6-14.9,7.9
			C88.3,129.1,86.2,136.7,86.2,146.7z"/>
	</g>
	<g>
		<path d="M211.8,93.1V78H225v15.2H211.8z M211.8,185.3v-77.8H225v77.8H211.8z"/>
	</g>
	<g>
		<path d="M161.5,131.2c0,2,0.4,3.7,1.3,4.9c0.9,1.3,2,2.3,3.4,3.1c1.4,0.8,3.1,1.5,5,2c1.9,0.5,3.8,1,5.8,1.4
			c2.8,0.6,5.4,1.3,7.8,2c2.5,0.7,4.7,1.9,6.8,3.4c2.1,1.5,3.8,3.5,5.1,6.1c1.3,2.5,1.9,5.9,1.9,9.9c0,3.7-0.7,7-2.2,9.8
			c-1.4,2.9-3.5,5.2-6.1,7.2c-2.6,1.9-5.8,3.4-9.4,4.4c-3.7,1-7.7,1.5-12,1.5c-2.7,0-5.1-0.1-7.3-0.4c-2.2-0.3-4.1-0.6-5.8-1.1
			c-1.7-0.4-3.1-0.9-4.3-1.3c-1.2-0.5-2.2-0.9-2.9-1.3v-10c3,1.2,6,2.2,9,2.9c3,0.7,6.3,1.1,9.8,1.1c2.8,0,5.4-0.3,7.6-0.8
			c2.3-0.5,4.2-1.3,5.9-2.3c1.6-1,2.9-2.3,3.8-3.8c0.9-1.5,1.3-3.3,1.3-5.3c0-2.1-0.4-3.8-1.2-5.1c-0.8-1.3-1.9-2.4-3.3-3.3
			c-1.4-0.9-2.9-1.6-4.7-2.2c-1.8-0.6-3.7-1.1-5.6-1.5c-2.6-0.6-5.2-1.2-7.8-2c-2.7-0.8-5.1-1.9-7.2-3.2c-2.2-1.4-3.9-3.3-5.3-5.7
			c-1.3-2.4-2-5.5-2-9.2c0-3.9,0.7-7.2,2.1-10c1.4-2.8,3.3-5.2,5.6-7c2.4-1.9,5.1-3.2,8.3-4.2c3.1-0.9,6.5-1.4,10-1.4
			c4.1,0,7.8,0.4,11.3,1.2c3.5,0.8,6.6,1.7,9.5,2.9v10.2c-3-1.2-6.1-2.1-9.1-2.9c-3.1-0.7-6.3-1.1-9.5-1.2c-2.8,0-5.1,0.3-7.1,0.8
			c-2,0.6-3.6,1.3-4.8,2.4c-1.3,1-2.2,2.2-2.7,3.5C161.8,128.1,161.5,129.6,161.5,131.2z"/>
	</g>
</g>
</svg>
