<svg xmlns="http://www.w3.org/2000/svg" viewBox="0 0 159 100"><path fill="#6C7789" d="M69.9 41l-2.5-2.5c-.6-.6-.6-1.5 0-2.1.6-.6 1.5-.6 2.1 0l2.5 2.5 2.5-2.5c.6-.6 1.5-.6 2.1 0 .6.6.6 1.5 0 2.1L74.1 41l2.5 2.5c.6.6.6 1.5 0 2.1-.6.6-1.5.6-2.1 0L72 43.1l-2.5 2.5c-.6.6-1.5.6-2.1 0-.6-.6-.6-1.5 0-2.1l2.5-2.5zm-44 0l-2.5-2.5c-.6-.6-.6-1.5 0-2.1.6-.6 1.5-.6 2.1 0l2.5 2.5 2.5-2.5c.6-.6 1.5-.6 2.1 0 .6.6.6 1.5 0 2.1L30.1 41l2.5 2.5c.6.6.6 1.5 0 2.1-.6.6-1.5.6-2.1 0L28 43.1l-2.5 2.5c-.6.6-1.5.6-2.1 0-.6-.6-.6-1.5 0-2.1l2.5-2.5zM97 57c0-.8.7-1.5 1.5-1.5s1.5.7 1.5 1.5v27c0 3.3-2.7 6-6 6H60.9l2.1-.9-8.8 8.8c-2.3 2.3-6.1 2.3-8.5 0L37 89.1l2.1.9H6c-3.3 0-6-2.7-6-6V6c0-3.3 2.7-6 6-6h88c3.3 0 6 2.7 6 6v8c0 .8-.7 1.5-1.5 1.5S97 14.8 97 14V6c0-1.7-1.3-3-3-3H6C4.3 3 3 4.3 3 6v78c0 1.7 1.3 3 3 3h33.1l8.8 8.8c1.2 1.2 3.1 1.2 4.2 0l8.8-8.8H94c1.7 0 3-1.3 3-3V57zm-61.5 6c0-.8.7-1.5 1.5-1.5h26c.8 0 1.5.7 1.5 1.5s-.7 1.5-1.5 1.5H37c-.8 0-1.5-.7-1.5-1.5z"/><path fill="#F5851F" d="M131.3 57.4h5c12.5 0 22.7-10.2 22.7-22.7S148.8 12 136.3 12h-21.6C102.2 12 92 22.2 92 34.7s10.2 22.7 22.7 22.7h5l3.4 3.4c1.3 1.3 3.5 1.3 4.8 0l3.4-3.4zM106 42.7c-4.4-.2-6.8-2.7-7-7.3.3-4.6 2.7-7.1 7-7.5 4.3.4 6.7 2.9 7 7.5-.3 4.7-2.7 7.1-7 7.3zm13-11.1c3.2.3 5 2.2 5.3 5.7-.3 3.5-2 5.3-5.3 5.5-3.3-.2-5.1-2-5.3-5.5.3-3.5 2-5.4 5.3-5.7zm6.5 13.7v-12c0-1 .5-1.6 1.5-1.7.8.1 1.3.5 1.4 1.3.5-.9 1.5-1.3 2.8-1.4 2.9.2 4.5 2.2 4.8 5.8-.3 3.4-1.9 5.2-4.9 5.3-1.1-.1-2-.3-2.7-.9v3.4c-.1 1.1-.5 1.6-1.4 1.7-1 .1-1.5-.5-1.5-1.5zm19-11.7c-.1.9-.5 1.3-1.2 1.4-.2.1-.6-.1-1-.3-.7-.3-1.3-.5-1.6-.6-.7.1-1 .3-1 .8 0 .4.6.8 1.7 1.2 2.3.9 3.4 2 3.4 3.4-.2 2.1-1.6 3.2-4.2 3.3-2.5-.2-3.9-.9-4.1-2.1.1-.8.5-1.3 1.2-1.4.4 0 .8.2 1.4.6.6.3 1.2.5 1.8.5.7.1 1.1-.2 1.1-.9 0-.3-.6-.7-1.8-1.1-2.2-.9-3.4-2-3.4-3.4.1-2.1 1.4-3.3 4-3.4 2.4.2 3.6.9 3.7 2zm2.4 3.6v-7.9c0-.9.5-1.3 1.5-1.4.9.1 1.3.6 1.4 1.4v7.9c-.1.9-.6 1.3-1.4 1.4-.9-.1-1.4-.6-1.5-1.4zm1.6 5.5c-1-.1-1.5-.5-1.6-1.4.1-1 .6-1.5 1.6-1.6 1 .1 1.5.6 1.6 1.6-.2.9-.7 1.4-1.6 1.4zm-20.1-5.5c.1 2 .9 3 2.3 3 1.4-.1 2.2-1.1 2.3-3-.2-1.8-.9-2.8-2.3-3-1.4.2-2.2 1.1-2.3 3zm-9.4-2.9c-1.4.1-2.2 1.1-2.3 3 .1 1.9.9 2.9 2.3 3 1.4-.1 2.2-1 2.3-3-.2-1.9-.9-2.9-2.3-3zm-13 5.8c2.4-.1 3.8-1.7 3.9-4.7-.2-3-1.5-4.6-3.9-4.7-2.4.2-3.7 1.7-3.8 4.7 0 3 1.3 4.6 3.8 4.7z"/></svg>